<?xml version="1.0" encoding="UTF-8"?>
<svg viewBox="0 0 900 600" xmlns="http://www.w3.org/2000/svg">
<defs>
<marker id="a" markerHeight="13" markerWidth="14" orient="auto" refX="7" refY="5" viewBox="0 0 10 10">
<path d="m0 0 10 5-10 5z"/>
</marker>
</defs>
<circle cx="150" cy="300" r="10"/>
<circle cx="350" cy="300" r="10"/>
<circle cx="200" cy="100" r="10"/>
<circle cx="400" cy="100" r="10"/>
<line x1="50" x2="250" y1="350" y2="250" marker-end="url(#a)" stroke="#000" stroke-dasharray="4"/>
<line x1="150" x2="350" y1="300" y2="300" stroke="#000" stroke-dasharray="4"/>
<line x1="150" x2="200" y1="300" y2="100" stroke="#000" stroke-dasharray="4"/>
<path d="m150 300-50-150 150 200z" fill="silver" stroke="#000"/>
<circle cx="50" cy="350" r="10"/>
<circle cx="250" cy="350" r="10"/>
<circle cx="100" cy="150" r="10"/>
<circle cx="300" cy="150" r="10"/>
<line x1="50" x2="350" y1="350" y2="350" marker-end="url(#a)" stroke="#000"/>
<line x1="50" x2="125" y1="350" y2="50" marker-end="url(#a)" stroke="#000"/>
<line x1="250" x2="350" y1="350" y2="300" stroke="#000"/>
<line x1="250" x2="300" y1="350" y2="150" stroke="#000"/>
<line x1="350" x2="400" y1="300" y2="100" stroke="#000"/>
<line x1="100" x2="300" y1="150" y2="150" stroke="#000"/>
<line x1="200" x2="400" y1="100" y2="100" stroke="#000"/>
<line x1="100" x2="200" y1="150" y2="100" stroke="#000"/>
<line x1="300" x2="400" y1="150" y2="100" stroke="#000"/>
<circle cx="600" cy="300" r="10"/>
<circle cx="800" cy="300" r="10"/>
<circle cx="650" cy="100" r="10"/>
<circle cx="850" cy="100" r="10"/>
<circle cx="550" cy="500" r="10"/>
<circle cx="750" cy="500" r="10"/>
<line x1="560" x2="600" y1="325" y2="325" stroke="#000"/>
<line x1="550" x2="650" y1="350" y2="250" marker-end="url(#a)" stroke="#000" stroke-dasharray="4"/>
<line x1="500" x2="550" y1="550" y2="500" stroke="#000" stroke-dasharray="4"/>
<line x1="800" x2="600" y1="300" y2="300" stroke="#000" stroke-dasharray="4"/>
<line x1="750" x2="550" y1="500" y2="500" stroke="#000" stroke-dasharray="4"/>
<line x1="650" x2="550" y1="100" y2="500" stroke="#000" stroke-dasharray="4"/>
<path d="m550 500 50-350 100 400z" fill="silver" stroke="#000"/>
<line x1="600" x2="800" y1="150" y2="150" stroke="#000"/>
<line x1="600" x2="650" y1="150" y2="100" stroke="#000"/>
<line x1="650" x2="850" y1="100" y2="100" stroke="#000"/>
<line x1="800" x2="850" y1="150" y2="100" stroke="#000"/>
<line x1="550" x2="850" y1="350" y2="350" marker-end="url(#a)" stroke="#000"/>
<line x1="750" x2="800" y1="350" y2="300" stroke="#000"/>
<line x1="500" x2="700" y1="550" y2="550" stroke="#000"/>
<line x1="700" x2="750" y1="550" y2="500" stroke="#000"/>
<line x1="500" x2="625" y1="550" y2="50" marker-end="url(#a)" stroke="#000"/>
<line x1="700" x2="800" y1="550" y2="150" stroke="#000"/>
<line x1="750" x2="850" y1="500" y2="100" stroke="#000"/>
<circle cx="550" cy="350" r="10"/>
<circle cx="750" cy="350" r="10"/>
<circle cx="600" cy="150" r="10"/>
<circle cx="800" cy="150" r="10"/>
<circle cx="500" cy="550" r="10"/>
<circle cx="700" cy="550" r="10"/>
<text x="150" y="65" font-size="35px">plane (111)</text>
<text x="650" y="65" font-size="35px">plane (221)</text>
<line x1="640" x2="660" y1="360" y2="340" stroke="#000"/>
<text x="20" y="365" font-size="30px">0</text>
<text x="520" y="365" font-size="30px">0</text>
<text x="20" y="155" font-size="30px">z = 1</text>
<text x="520" y="155" font-size="30px">z = 1</text>
<text x="220" y="390" font-size="30px">x = 1</text>
<text x="620" y="390" font-size="30px">x = ½</text>
<text x="75" y="300" font-size="30px">y = 1</text>
<text x="475" y="300" font-size="30px">y = ½</text>
</svg>
